Coordinates
version=1
nRows=54
nColumns=12
inDegrees=yes

Units are S.I. units (second, meters, Newtons, ...)
Angles are in degrees

endheader
time	SC_y	SC_z	SC_x	AC_y	AC_z	AC_x	GH_y	GH_z	GH_yy	EL_x	PS_y
       0.0              -11.16          38.37          70.66          58.96           7.58         -6.774         -152.8          72.22          156.2          21.32          62.11
   0.04993              -11.17          38.37          70.65          58.96          7.579         -6.775         -152.8          72.21          156.2          21.34          62.12
   0.09985              -11.17          38.37          70.65          58.95          7.578         -6.776         -152.8          72.21          156.2          21.35          62.14
    0.1498              -11.17          38.36          70.64          58.95          7.577         -6.777         -152.7           72.2          156.1          21.37          62.15
    0.1997              -11.17          38.36          70.64          58.95          7.576         -6.779         -152.7           72.2          156.1          21.38          62.17
    0.2496              -11.17          38.35          70.63          58.94          7.575          -6.78         -152.7          72.19          156.1           21.4          62.18
    0.2996              -11.18          38.34          70.62          58.94          7.574         -6.782         -152.6          72.19          156.1          21.42           62.2
    0.3495              -11.18          38.34          70.62          58.93          7.573         -6.783         -152.6          72.18          156.1          21.44          62.22
    0.3994              -11.18          38.33          70.61          58.93          7.572         -6.785         -152.5          72.17          156.1          21.47          62.24
    0.4493              -11.18          38.32           70.6          58.92           7.57         -6.787         -152.5          72.17          156.1          21.49          62.26
    0.4993              -11.19          38.32          70.59          58.91          7.569         -6.789         -152.4          72.16          156.0          21.52          62.28
    0.5492              -11.19          38.31          70.58          58.91          7.568         -6.791         -152.4          72.15          156.0          21.54           62.3
    0.5991               -11.2           38.3          70.57           58.9          7.566         -6.794         -152.3          72.14          156.0          21.57          62.33
     0.649               -11.2          38.29          70.56          58.89          7.564         -6.796         -152.2          72.13          156.0          21.61          62.36
     0.699               -11.2          38.28          70.55          58.88          7.562         -6.799         -152.2          72.12          155.9          21.64          62.39
    0.7489              -11.21          38.27          70.53          58.87           7.56         -6.802         -152.1          72.11          155.9          21.68          62.42
    0.7988              -11.21          38.26          70.52          58.86          7.558         -6.805         -152.0          72.09          155.9          21.72          62.46
    0.8487              -11.22          38.24           70.5          58.85          7.556         -6.809         -151.9          72.08          155.8          21.77          62.49
    0.8987              -11.23          38.23          70.49          58.84          7.553         -6.812         -151.8          72.07          155.8          21.81          62.54
    0.9486              -11.23          38.21          70.47          58.83           7.55         -6.817         -151.7          72.05          155.8          21.87          62.58
    0.9985              -11.24          38.19          70.45          58.81          7.547         -6.821         -151.6          72.03          155.7          21.93          62.63
     1.048              -11.25          38.18          70.43          58.79          7.543         -6.826         -151.4          72.01          155.7          21.99          62.69
     1.098              -11.26          38.15           70.4          58.78          7.539         -6.832         -151.3          71.99          155.6          22.06          62.75
     1.148              -11.27          38.13          70.37          58.76          7.535         -6.838         -151.1          71.96          155.5          22.14          62.82
     1.198              -11.28           38.1          70.34          58.73           7.53         -6.845         -150.9          71.94          155.5          22.23           62.9
     1.248              -11.29          38.08          70.31          58.71          7.525         -6.853         -150.7          71.91          155.4          22.33          62.98
     1.298               -11.3          38.04          70.27          58.68          7.519         -6.862         -150.5          71.87          155.3          22.44          63.08
     1.348              -11.32          38.01          70.23          58.65          7.512         -6.871         -150.2          71.83          155.2          22.57          63.19
     1.398              -11.34          37.96          70.18          58.61          7.505         -6.882         -149.9          71.79          155.1          22.71          63.31
     1.448              -11.36          37.92          70.13          58.57          7.496         -6.895         -149.6          71.74          155.0          22.86          63.45
     1.498              -11.38          37.86          70.06          58.53          7.486         -6.909         -149.2          71.68          154.8          23.05           63.6
     1.548              -11.41           37.8          69.99          58.48          7.475         -6.926         -148.7          71.62          154.6          23.26          63.78
     1.598              -11.44          37.73          69.91          58.42          7.462         -6.944         -148.2          71.55          154.5           23.5          63.99
     1.648              -11.47          37.65          69.81          58.35          7.447         -6.966         -147.6          71.46          154.2          23.78          64.23
     1.697              -11.51          37.55           69.7          58.26          7.429         -6.992         -146.9          71.36          154.0           24.1          64.52
     1.747              -11.56          37.44          69.57          58.17          7.408         -7.022         -146.1          71.24          153.7          24.49          64.85
     1.797              -11.62           37.3          69.41          58.05          7.383         -7.058         -145.2           71.1          153.3          24.95          65.25
     1.847              -11.69          37.14          69.22          57.91          7.354         -7.102         -144.0          70.93          152.9           25.5          65.72
     1.897              -11.77          36.94          68.99          57.75          7.318         -7.154         -142.6          70.72          152.3          26.17           66.3
     1.947              -11.88           36.7          68.71          57.54          7.274         -7.218         -140.9          70.47          151.7          26.98           67.0
     1.997               -12.0           36.4          68.36          57.29          7.219         -7.296         -138.7          70.16          150.9          27.98          67.87
     2.047              -12.16          36.03          67.93          56.97          7.152         -7.395         -136.1          69.77          149.9          29.24          68.95
     2.097              -12.36          35.57          67.39          56.58          7.066         -7.518         -132.8          69.28          148.6          30.81          70.31
     2.147              -12.61          34.97           66.7          56.08          6.958         -7.676         -128.5          68.66          147.0          32.82          72.05
     2.197              -12.94          34.21          65.82          55.43          6.819         -7.877         -123.1          67.87          145.0          35.38          74.27
     2.247              -13.35          33.24          64.68           54.6          6.641         -8.135         -116.1          66.85          142.3          38.68          77.11
     2.297              -13.88          31.99          63.23          53.55          6.413         -8.465         -107.3          65.55          139.0          42.88          80.75
     2.346              -14.55          30.43          61.41          52.22          6.127          -8.88         -96.08          63.91          134.8          48.17          85.32
     2.396              -15.37          28.52          59.19           50.6          5.779         -9.386         -82.45          61.92          129.6          54.62          90.89
     2.446              -16.31          26.31          56.62          48.72          5.375         -9.972         -66.66          59.61          123.7          62.09          97.35
     2.496              -17.33          23.92          53.84          46.69          4.937         -10.61         -49.56          57.11          117.2          70.18          104.3
     2.546              -18.35          21.52          51.05          44.66          4.499         -11.24         -32.46           54.6          110.8          78.27          111.3
     2.596              -19.29          19.31          48.48          42.79          4.095         -11.83         -16.67          52.29          104.8          85.74          117.8
     2.646              -20.11           17.4          46.26          41.17          3.747         -12.33         -3.049           50.3          99.68          92.18          123.4
